<?xml version="1.0" standalone="no"?>
<!DOCTYPE svg PUBLIC "-//W3C//DTD SVG 20010904//EN"
 "http://www.w3.org/TR/2001/REC-SVG-20010904/DTD/svg10.dtd">
<svg version="1.0" xmlns="http://www.w3.org/2000/svg"
 width="512.000000pt" height="512.000000pt" viewBox="0 0 512.000000 512.000000"
 preserveAspectRatio="xMidYMid meet">
<metadata>
Created by potrace 1.14, written by Peter Selinger 2001-2017
</metadata>
<g transform="translate(0.000000,512.000000) scale(0.100000,-0.100000)"
fill="#000000" stroke="none">
<path d="M0 4426 l0 -281 187 0 188 0 0 -1578 c0 -933 -4 -1581 -9 -1585 -5
-3 -89 -5 -188 -4 l-178 0 0 -282 0 -282 689 0 c379 1 692 4 696 7 5 5 9 369
6 520 l-1 36 -181 1 c-99 0 -182 2 -185 5 -7 7 -7 3144 0 3155 3 5 86 8 185 7
l181 0 1 42 c0 56 0 386 0 461 l-1 58 -695 0 -695 0 0 -280z"/>
<path d="M1730 4700 c0 -4 81 -148 181 -321 100 -173 260 -451 357 -619 96
-168 222 -385 279 -483 57 -98 103 -183 103 -188 0 -5 5 -9 10 -9 6 0 10 -4
10 -9 0 -6 63 -119 141 -253 l141 -243 -23 -40 c-20 -36 -227 -371 -268 -435
-8 -14 -21 -34 -27 -45 -10 -18 -766 -1242 -818 -1325 -13 -19 -39 -61 -59
-92 -20 -32 -37 -60 -37 -62 0 -3 -13 -24 -28 -48 -16 -24 -38 -59 -50 -79
l-21 -35 385 0 384 1 21 35 c12 19 36 62 54 95 18 33 42 78 55 100 32 56 269
481 295 530 12 22 52 94 90 160 37 66 85 154 107 195 23 41 47 82 54 91 8 8
14 19 14 23 0 3 41 79 91 169 100 177 171 316 189 372 7 20 17 34 23 32 5 -1
19 -30 31 -63 22 -66 132 -284 225 -447 33 -60 61 -110 61 -112 0 -2 17 -34
38 -72 22 -37 55 -97 74 -133 107 -197 236 -433 412 -755 l121 -220 383 -1
c273 0 382 3 382 10 0 7 -6 20 -14 31 -7 11 -25 43 -41 70 -15 28 -51 91 -80
140 -94 160 -268 459 -279 480 -6 11 -19 31 -27 45 -9 14 -79 131 -155 260
-75 129 -182 308 -236 398 -54 90 -98 165 -98 167 0 2 -12 23 -27 47 -16 24
-33 52 -40 63 -6 11 -71 117 -144 235 -73 118 -132 219 -132 225 0 5 41 79 91
163 51 85 92 158 92 163 0 5 5 9 10 9 6 0 10 4 10 9 0 4 33 64 74 132 104 176
442 745 551 929 50 85 145 245 210 355 65 110 138 233 163 273 24 40 41 76 37
80 -3 4 -170 7 -369 8 -357 0 -362 0 -372 -20 -9 -20 -296 -557 -369 -691 -18
-33 -103 -193 -190 -355 -86 -162 -176 -329 -199 -370 -54 -98 -72 -136 -117
-250 -21 -52 -42 -96 -47 -98 -5 -1 -28 48 -52 110 -37 100 -145 319 -350 713
-101 195 -181 349 -281 540 -51 99 -121 234 -156 300 l-62 120 -390 1 c-215 0
-391 -3 -391 -6z"/>
</g>
</svg>
